<?xml version="1.0" encoding="utf-8"?>
<!-- Generator: Adobe Illustrator 23.0.2, SVG Export Plug-In . SVG Version: 6.00 Build 0)  -->
<svg version="1.1" xmlns="http://www.w3.org/2000/svg" xmlns:xlink="http://www.w3.org/1999/xlink" x="0px" y="0px"
	 viewBox="0 0 1920 2160" style="enable-background:new 0 0 1920 2160;" xml:space="preserve">
<style type="text/css">
	.st0{opacity:0.6;}
	.st1{fill:none;}
	.st2{fill:#B34437;}
</style>
<g id="Layer_1">
</g>
<g id="Layer_3">
	<g class="st0">
		<polygon class="st1" points="1915.3,629 1735.5,629 1479.3,886.8 1655.1,886.8 		"/>
		<polygon class="st1" points="1470.3,1267 1285.5,1267 1024.1,1527.8 1024.1,1896.6 1285.5,2157.4 1655.1,2157.4 1916.5,1896.6 
			1916.5,1532 1733.6,1532 		"/>
		<polygon class="st1" points="1476.8,1267 1735.5,1527.4 1916.1,1527.4 1655.1,1267 		"/>
		<polygon class="st1" points="1656.4,891.4 1474.8,891.4 1474.1,892.1 1474.1,1264 1656.4,1264 1920,1527 1920,1527.4 
			2105.1,1527.4 2366.5,1264.2 2366.5,892.1 2105.1,629 1920,629 1920,630.1 		"/>
		<polygon class="st1" points="1916.5,626 1916.5,261.4 1655.1,2.4 1285.5,2.4 1024.1,261.4 1024.1,627.8 1285.5,886.8 
			1474.5,886.8 1733.6,626 		"/>
		<polygon class="st2" points="1474.5,886.8 1285.5,886.8 1024.1,627.8 1024.1,261.4 1285.5,2.4 1655.1,2.4 1916.5,261.4 
			1916.5,626 1920,626 1920,260.7 1656.4,-0.6 1283.6,-0.6 1020,260.7 1020,630.1 1283.6,891.4 1470,891.4 1470,891.4 		"/>
		<polygon class="st2" points="1655.1,886.8 1479.3,886.8 1474.8,891.4 1656.4,891.4 1920,630.1 1920,629 1915.3,629 		"/>
		<polygon class="st2" points="1915.3,629 1916.5,627.8 1916.5,626 1733.6,626 1474.5,886.8 1479.3,886.8 1735.5,629 		"/>
		<polygon class="st2" points="1476.8,1267 1470.3,1267 1733.6,1532 1916.5,1532 1916.5,1527.8 1916.1,1527.4 1735.5,1527.4 		"/>
		<polygon class="st2" points="1474.1,892.1 1474.8,891.4 1470,891.4 1470,1264 1474.1,1264 		"/>
		<polygon class="st2" points="1479.3,886.8 1474.5,886.8 1470,891.4 1470,891.4 1474.8,891.4 		"/>
		<polygon class="st2" points="1916.5,627.8 1915.3,629 1920,629 1920,626 1916.5,626 		"/>
		<polygon class="st2" points="1916.5,1896.6 1655.1,2157.4 1285.5,2157.4 1024.1,1896.6 1024.1,1527.8 1285.5,1267 1470.3,1267 
			1470,1266.6 1470,1264 1283.6,1264 1020,1527 1020,1899 1283.6,2162 1656.4,2162 1920,1899 1920,1532 1916.5,1532 		"/>
		<polygon class="st2" points="1656.4,1264 1474.1,1264 1474.1,1264.2 1476.8,1267 1655.1,1267 1916.1,1527.4 1920,1527.4 
			1920,1527 		"/>
		<polygon class="st2" points="1470.3,1267 1476.8,1267 1474.1,1264.2 1474.1,1264 1470,1264 1470,1266.6 		"/>
		<polygon class="st2" points="1916.1,1527.4 1916.5,1527.8 1916.5,1532 1920,1532 1920,1527.4 		"/>
	</g>
</g>
</svg>
