<?xml version="1.0" encoding="utf-8"?>
<!-- Generator: Adobe Illustrator 23.0.2, SVG Export Plug-In . SVG Version: 6.00 Build 0)  -->
<svg version="1.1" id="Layer_1" xmlns="http://www.w3.org/2000/svg" xmlns:xlink="http://www.w3.org/1999/xlink" x="0px" y="0px"
	 viewBox="0 0 1920 2160" style="enable-background:new 0 0 1920 2160;" xml:space="preserve">
<style type="text/css">
	.st0{opacity:0.6;}
	.st1{fill:none;}
	.st2{fill:#B34437;}
</style>
<g id="Layer_3" class="st0">
	<g class="st0">
		<polygon class="st1" points="1915.6,628.2 1724,628.2 1451,886.1 1638.3,886.1 		"/>
		<polygon class="st1" points="1441.4,1266.5 1244.5,1266.5 966,1527.4 966,1896.4 1244.5,2157.3 1638.3,2157.3 1916.9,1896.4 
			1916.9,1531.6 1722,1531.6 		"/>
		<polygon class="st1" points="1448.4,1266.5 1724,1527 1916.5,1527 1638.3,1266.5 		"/>
		<polygon class="st1" points="1639.7,890.7 1446.2,890.7 1445.5,891.4 1445.5,1263.5 1639.7,1263.5 1920.6,1526.6 1920.6,1527 
			2117.9,1527 2396.4,1263.7 2396.4,891.4 2117.9,628.2 1920.6,628.2 1920.6,629.3 		"/>
		<polygon class="st1" points="1916.9,625.2 1916.9,260.5 1638.3,1.4 1244.5,1.4 966,260.5 966,627 1244.5,886.1 1445.9,886.1 
			1722,625.2 		"/>
		<polygon class="st2" points="1445.9,886.1 1244.5,886.1 966,627 966,260.5 1244.5,1.4 1638.3,1.4 1916.9,260.5 1916.9,625.2 
			1920.6,625.2 1920.6,259.8 1639.7,-1.6 1242.5,-1.6 961.6,259.8 961.6,629.3 1242.5,890.7 1441.1,890.7 1441.1,890.7 		"/>
		<polygon class="st2" points="1638.3,886.1 1451,886.1 1446.2,890.7 1639.7,890.7 1920.6,629.3 1920.6,628.2 1915.6,628.2 		"/>
		<polygon class="st2" points="1915.6,628.2 1916.9,627 1916.9,625.2 1722,625.2 1445.9,886.1 1451,886.1 1724,628.2 		"/>
		<polygon class="st2" points="1448.4,1266.5 1441.4,1266.5 1722,1531.6 1916.9,1531.6 1916.9,1527.4 1916.5,1527 1724,1527 		"/>
		<polygon class="st2" points="1445.5,891.4 1446.2,890.7 1441.1,890.7 1441.1,1263.5 1445.5,1263.5 		"/>
		<polygon class="st2" points="1451,886.1 1445.9,886.1 1441.1,890.7 1441.1,890.7 1446.2,890.7 		"/>
		<polygon class="st2" points="1916.9,627 1915.6,628.2 1920.6,628.2 1920.6,625.2 1916.9,625.2 		"/>
		<polygon class="st2" points="1916.9,1896.4 1638.3,2157.3 1244.5,2157.3 966,1896.4 966,1527.4 1244.5,1266.5 1441.4,1266.5 
			1441.1,1266.1 1441.1,1263.5 1242.5,1263.5 961.6,1526.6 961.6,1898.8 1242.5,2161.9 1639.7,2161.9 1920.6,1898.8 1920.6,1531.6 
			1916.9,1531.6 		"/>
		<polygon class="st2" points="1639.7,1263.5 1445.5,1263.5 1445.5,1263.7 1448.4,1266.5 1638.3,1266.5 1916.5,1527 1920.6,1527 
			1920.6,1526.6 		"/>
		<polygon class="st2" points="1441.4,1266.5 1448.4,1266.5 1445.5,1263.7 1445.5,1263.5 1441.1,1263.5 1441.1,1266.1 		"/>
		<polygon class="st2" points="1916.5,1527 1916.9,1527.4 1916.9,1531.6 1920.6,1531.6 1920.6,1527 		"/>
	</g>
</g>
</svg>
