<?xml version="1.0" encoding="utf-8"?>
<!-- Generator: Adobe Illustrator 23.0.2, SVG Export Plug-In . SVG Version: 6.00 Build 0)  -->
<svg version="1.1" id="Layer_1" xmlns="http://www.w3.org/2000/svg" xmlns:xlink="http://www.w3.org/1999/xlink" x="0px" y="0px"
	 viewBox="0 0 150 50" style="enable-background:new 0 0 150 50;" xml:space="preserve">
<style type="text/css">
	.st0{fill:none;stroke:#66140E;stroke-width:2;stroke-miterlimit:10;}
	.st1{fill:#B24537;}
	.st2{fill:none;stroke:#B24537;stroke-miterlimit:10;}
	.st3{fill:none;}
	.st4{enable-background:new    ;}
</style>
<g>
	<polyline class="st0" points="36.1,13.2 19.6,2 3,13.2 36.1,35.7 19.6,47 3,35.7 	"/>
	<g>
		<polygon class="st1" points="25.7,35.7 14.3,27.6 17.8,27.9 29.2,35.9 		"/>
		<polygon class="st2" points="25.7,35.7 14.3,27.6 17.8,27.9 29.2,35.9 		"/>
	</g>
	<g>
		<polygon class="st1" points="21.4,38.7 9.8,30.5 12.9,30.7 24.5,38.8 		"/>
		<polygon class="st2" points="21.4,38.7 9.8,30.5 12.9,30.7 24.5,38.8 		"/>
	</g>
	<g>
		<polygon class="st1" points="16.6,41.7 5,33.6 8.1,33.8 19.7,41.9 		"/>
		<polygon class="st2" points="16.6,41.7 5,33.6 8.1,33.8 19.7,41.9 		"/>
	</g>
	<g>
		<polygon class="st1" points="30.2,15.7 18.8,7.6 22.3,7.9 33.7,15.9 		"/>
		<polygon class="st2" points="30.2,15.7 18.8,7.6 22.3,7.9 33.7,15.9 		"/>
	</g>
	<g>
		<polygon class="st1" points="25.9,18.7 14.2,10.5 17.4,10.7 29,18.8 		"/>
		<polygon class="st2" points="25.9,18.7 14.2,10.5 17.4,10.7 29,18.8 		"/>
	</g>
	<g>
		<polygon class="st1" points="21.1,21.7 9.5,13.6 12.6,13.8 24.2,21.9 		"/>
		<polygon class="st2" points="21.1,21.7 9.5,13.6 12.6,13.8 24.2,21.9 		"/>
	</g>
</g>
<g>
	<rect x="42.4" y="6" class="st3" width="107.6" height="38.8"/>
	<g class="st4">
		<path class="st1" d="M45.5,6h11.2c1.3,0,2.3,0.4,2.9,1.2c0.1,0.3,0.2,0.5,0.2,0.7l0,0h-1c0,0-0.1-0.1-0.1-0.3
			c-0.4-0.6-1-0.9-2-0.9H45.5c-0.8,0-1.5,0.3-1.8,0.8c-0.1,0.1-0.1,0.2-0.1,0.4V10c0,0.5,0.4,0.8,1.2,1.1c0.2,0,0.3,0.1,0.5,0.1
			c0.9,0,1.5,0,2,0h9.5c0.7,0,1.2,0.2,1.5,0.6c0.1,0.1,0.1,0.2,0.1,0.3V14c0,0.5-0.4,0.8-1.2,0.9c-0.1,0-0.2,0-0.3,0H45.1
			c-0.5,0-0.9-0.2-1.1-0.5c0-0.1,0-0.1,0-0.2v0c0,0,0,0,0,0h1c0.1,0.1,0.1,0.1,0.1,0.1h11.6c0.3,0,0.4-0.1,0.5-0.3v-1.8
			c0-0.2-0.2-0.3-0.5-0.3h-9.4c-0.5,0-1.2,0-2.1,0c-0.6,0-1.1-0.2-1.6-0.4c-0.7-0.4-1.1-0.9-1.1-1.4V7.8c0-0.6,0.5-1.1,1.5-1.5
			C44.4,6.1,44.9,6,45.5,6z M45.5,7h11.2c0.8,0,1.3,0.2,1.6,0.7c0,0.1,0,0.2,0,0.2l0,0h-1c0,0-0.1-0.1-0.1-0.2
			c-0.1-0.1-0.3-0.1-0.5-0.1H45.5c-0.3,0-0.5,0.1-0.5,0.3V10c0,0.1,0.1,0.2,0.4,0.3c0.7,0,1.2,0,1.6,0h9.7c1.2,0,2.1,0.3,2.7,1
			c0.2,0.3,0.3,0.5,0.3,0.8V14c0,0.6-0.4,1.1-1.3,1.5c-0.5,0.2-1.1,0.4-1.7,0.4H45c-0.8,0-1.6-0.2-2.2-0.7c-0.3-0.3-0.4-0.6-0.4-0.8
			v-0.1c0,0,0,0,0,0h1c0,0,0,0,0,0v0.1c0,0.3,0.3,0.6,0.9,0.8c0.2,0.1,0.4,0.1,0.6,0.1h11.7c0.7,0,1.3-0.2,1.8-0.7
			c0.1-0.2,0.1-0.3,0.1-0.5v-1.8c0-0.5-0.4-0.9-1.2-1.1c-0.2-0.1-0.5-0.1-0.8-0.1h-9.5c-0.5,0-1.1,0-1.9,0c-0.5-0.1-0.8-0.2-1-0.3
			c-0.3-0.2-0.4-0.4-0.4-0.6V7.8c0-0.3,0.3-0.6,1-0.8C45.1,7,45.3,7,45.5,7z"/>
		<path class="st1" d="M60,6.1h16c0,0,0,0,0,0v0.6c0,0,0,0,0,0H60c0,0,0,0,0,0L60,6.1C60,6.1,60,6.1,60,6.1z M60,7h16c0,0,0,0,0,0
			v0.6c0,0,0,0,0,0h-6.7v8.2c0,0,0,0,0,0h-1c0,0,0,0,0,0V7.3h-0.4v8.6c0,0,0,0,0,0h-1c0,0,0,0,0,0V7.7H60c0,0,0,0,0,0L60,7
			C60,7,60,7,60,7z"/>
		<path class="st1" d="M76.3,6h14.2c1.3,0,2.3,0.4,2.9,1.2c0.1,0.3,0.2,0.5,0.2,0.7l0,0h-1c0,0-0.1-0.1-0.1-0.3
			c-0.4-0.6-1-0.9-2-0.9H77.4v8.5h13.3c0.7,0,1.3-0.2,1.8-0.7c0.1-0.1,0.1-0.3,0.2-0.5h1c0,0,0,0,0,0c0,0.6-0.4,1.1-1.3,1.5
			c-0.5,0.2-1.1,0.4-1.7,0.4H76.3c0,0,0,0,0,0L76.3,6C76.3,6.1,76.3,6,76.3,6z M77.8,7h12.7c0.8,0,1.3,0.2,1.6,0.7
			c0,0.1,0,0.2,0,0.2l0,0h-1c0,0-0.1-0.1-0.1-0.2c-0.1-0.1-0.3-0.1-0.5-0.1H78.9v2.7h11.6c0,0,0,0,0,0v0.6c0,0,0,0,0,0H77.8
			c0,0,0,0,0,0L77.8,7C77.8,7,77.8,7,77.8,7z M77.8,11.2h12.7c0,0,0,0,0,0v0.6c0,0,0,0,0,0H78.9v2.4h11.7c0.2,0,0.4-0.1,0.5-0.3h1
			c0,0,0,0,0,0c0,0.4-0.3,0.6-1,0.8c-0.2,0.1-0.4,0.1-0.5,0.1H77.8c0,0,0,0,0,0L77.8,11.2C77.8,11.2,77.8,11.2,77.8,11.2z"/>
		<path class="st1" d="M93.9,6.1h14.2c1.3,0,2.3,0.4,2.9,1.2c0.1,0.3,0.2,0.5,0.2,0.7l0,0h-1c0,0-0.1-0.1-0.1-0.3
			c-0.4-0.6-1-0.9-2-0.9H94.9v9.1c0,0,0,0,0,0h-1c0,0,0,0,0,0L93.9,6.1C93.9,6.1,93.9,6.1,93.9,6.1z M95.4,7h12.7
			c0.8,0,1.3,0.2,1.6,0.7c0,0.1,0,0.2,0,0.2l0,0h-1c0,0-0.1-0.1-0.1-0.2c-0.1-0.1-0.3-0.1-0.5-0.1H96.5v3h11.6c0,0,0,0,0,0v0.6
			c0,0,0,0,0,0H95.4c0,0,0,0,0,0L95.4,7C95.4,7,95.4,7,95.4,7z M95.4,11.6h12.7c0,0,0,0,0,0v0.6c0,0,0,0,0,0H96.5v3.6c0,0,0,0,0,0
			h-1c0,0,0,0,0,0L95.4,11.6C95.4,11.6,95.4,11.6,95.4,11.6z"/>
		<path class="st1" d="M111.5,6.1h14.2c1.4,0,2.4,0.4,3,1.3c0.1,0.2,0.1,0.4,0.1,0.6v7.9c0,0,0,0,0,0h-1c0,0,0,0,0,0V7.9
			c0-0.5-0.4-0.9-1.3-1.1c-0.2,0-0.4-0.1-0.6-0.1h-13.2v9.1c0,0,0,0,0,0h-1c0,0,0,0,0,0L111.5,6.1C111.4,6.1,111.4,6.1,111.5,6.1z
			 M113,7h12.7c0.7,0,1.2,0.2,1.5,0.6c0.1,0.1,0.1,0.2,0.1,0.3v7.9c0,0,0,0,0,0h-1c0,0,0,0,0,0V7.9c0-0.1-0.1-0.2-0.4-0.3H114v3
			h11.6c0,0,0,0,0,0v0.6c0,0,0,0,0,0H113c0,0,0,0,0,0L113,7C112.9,7,113,7,113,7z M113,11.6h12.7c0,0,0,0,0,0v0.6c0,0,0,0,0,0H114
			v3.6c0,0,0,0,0,0h-1c0,0,0,0,0,0L113,11.6C112.9,11.6,113,11.6,113,11.6z"/>
		<path class="st1" d="M129,6h1c0,0,0,0,0,0c0,3.2,0,5.9,0,8c0,0.5,0.4,0.9,1.3,1.1c0.2,0.1,0.4,0.1,0.6,0.1h0.1c0,0,0,0,0,0v0.6
			c0,0,0,0,0,0H132c-0.9,0-1.7-0.3-2.4-0.8c-0.3-0.3-0.5-0.7-0.5-1.1C129,12,129,9.3,129,6L129,6z M130.5,6h1.4
			c7.9,5,11.8,7.5,11.8,7.5V6.1c0,0,0,0,0,0h1c0,0,0,0,0,0v9h0c-0.1,0-3.9-2.5-11.5-7.3C131.7,6.8,130.7,6.2,130.5,6L130.5,6z
			 M130.5,6.4L130.5,6.4c0,0,0.3,0.2,0.9,0.6c8.7,5.5,13.2,8.4,13.5,8.6v0h-1.4c-0.3-0.2-3.9-2.5-10.9-6.9l-1-0.6c0,1.4,0,2.4,0,3.1
			V14c0,0.1,0.1,0.2,0.4,0.3c0.1,0,0.1,0,0.1,0v0.6c0,0,0,0,0,0H132c-0.5,0-1-0.2-1.3-0.6c-0.1-0.1-0.1-0.3-0.1-0.4v-0.3
			C130.5,11.8,130.5,9.4,130.5,6.4z M145.3,6.1h1c0,0,0,0,0,0v9.5c0,0,0,0,0,0h-1c0,0,0,0,0,0L145.3,6.1
			C145.3,6.1,145.3,6.1,145.3,6.1z"/>
	</g>
	<g class="st4">
		<path class="st1" d="M45.5,32h11.2c1.3,0,2.3,0.4,2.9,1.2c0.1,0.3,0.2,0.5,0.2,0.7l0,0h-1c0,0-0.1-0.1-0.1-0.3
			c-0.4-0.6-1-0.9-2-0.9H45.5c-0.8,0-1.5,0.3-1.8,0.8c-0.1,0.1-0.1,0.2-0.1,0.4V36c0,0.5,0.4,0.8,1.2,1.1c0.2,0,0.3,0.1,0.5,0.1
			c0.9,0,1.5,0,2,0h9.5c0.7,0,1.2,0.2,1.5,0.6c0.1,0.1,0.1,0.2,0.1,0.3V40c0,0.5-0.4,0.8-1.2,0.9c-0.1,0-0.2,0-0.3,0H45.1
			c-0.5,0-0.9-0.2-1.1-0.5c0-0.1,0-0.1,0-0.2v0c0,0,0,0,0,0h1c0.1,0.1,0.1,0.1,0.1,0.1h11.6c0.3,0,0.4-0.1,0.5-0.3v-1.8
			c0-0.2-0.2-0.3-0.5-0.3h-9.4c-0.5,0-1.2,0-2.1,0c-0.6,0-1.1-0.2-1.6-0.4c-0.7-0.4-1.1-0.9-1.1-1.4v-2.2c0-0.6,0.5-1.1,1.5-1.5
			C44.4,32.1,44.9,32,45.5,32z M45.5,33h11.2c0.8,0,1.3,0.2,1.6,0.7c0,0.1,0,0.2,0,0.2l0,0h-1c0,0-0.1-0.1-0.1-0.2
			c-0.1-0.1-0.3-0.1-0.5-0.1H45.5c-0.3,0-0.5,0.1-0.5,0.3V36c0,0.1,0.1,0.2,0.4,0.3c0.7,0,1.2,0,1.6,0h9.7c1.2,0,2.1,0.3,2.7,1
			c0.2,0.3,0.3,0.5,0.3,0.8V40c0,0.6-0.4,1.1-1.3,1.5c-0.5,0.2-1.1,0.4-1.7,0.4H45c-0.8,0-1.6-0.2-2.2-0.7c-0.3-0.3-0.4-0.6-0.4-0.8
			v-0.1c0,0,0,0,0,0h1c0,0,0,0,0,0v0.1c0,0.3,0.3,0.6,0.9,0.8c0.2,0.1,0.4,0.1,0.6,0.1h11.7c0.7,0,1.3-0.2,1.8-0.7
			c0.1-0.2,0.1-0.3,0.1-0.5v-1.8c0-0.5-0.4-0.9-1.2-1.1c-0.2-0.1-0.5-0.1-0.8-0.1h-9.5c-0.5,0-1.1,0-1.9,0c-0.5-0.1-0.8-0.2-1-0.3
			c-0.3-0.2-0.4-0.4-0.4-0.6v-2.2c0-0.3,0.3-0.6,1-0.8C45.1,33,45.3,33,45.5,33z"/>
		<path class="st1" d="M60,32.1h1c0,0,0,0,0,0v9.8c0,0,0,0,0,0h-1c0,0,0,0,0,0L60,32.1C60,32.1,60,32.1,60,32.1z M61.5,32.1h1
			c0,0,0,0,0,0v4.6h11.7c0.3,0,0.4-0.1,0.5-0.3v-4.3c0,0,0,0,0,0h1c0,0,0,0,0,0v4.3c0,0.4-0.4,0.7-1.1,0.9c-0.2,0-0.3,0-0.5,0H61.5
			c0,0,0,0,0,0L61.5,32.1C61.5,32.1,61.5,32.1,61.5,32.1z M61.5,37.6h6.9c0.6,0.5,2.5,1.9,5.6,4.3v0h-1.3L68,38.2h-5.4v3.6
			c0,0,0,0,0,0h-1c0,0,0,0,0,0L61.5,37.6C61.5,37.6,61.5,37.6,61.5,37.6z M76.3,32.1h1c0,0,0,0,0,0v4.3c0,0.7-0.6,1.3-1.7,1.7
			c-0.5,0.1-0.9,0.2-1.4,0.2h-2.9c0.1,0,1.6,1.2,4.7,3.6v0h-1.3c0,0-1.9-1.4-5.6-4.3l0,0h5.1c1,0,1.7-0.3,2-0.9c0-0.1,0-0.2,0-0.3
			L76.3,32.1C76.3,32.1,76.3,32.1,76.3,32.1z"/>
		<path class="st1" d="M80.5,32.1h11.3c1.2,0,2.1,0.3,2.7,1c0.2,0.3,0.4,0.6,0.4,0.9v6c0,0.6-0.4,1.1-1.3,1.5
			c-0.5,0.2-1.1,0.4-1.7,0.4H80.2c-0.8,0-1.6-0.2-2.2-0.7c-0.3-0.3-0.4-0.6-0.4-0.8v-6.4c0-0.7,0.5-1.2,1.6-1.6
			C79.6,32.2,80.1,32.1,80.5,32.1z M78.6,33.9v6.4c0,0.3,0.3,0.6,0.9,0.8c0.2,0.1,0.4,0.1,0.6,0.1h11.7c0.7,0,1.3-0.2,1.8-0.7
			c0.1-0.2,0.1-0.3,0.1-0.5v-6c0-0.5-0.4-0.9-1.3-1.1c-0.2,0-0.4-0.1-0.6-0.1H80.5c-0.7,0-1.2,0.2-1.6,0.6
			C78.7,33.5,78.6,33.7,78.6,33.9z M80.6,33h11.3c0.6,0,1.1,0.2,1.4,0.6c0.1,0.1,0.1,0.2,0.1,0.3v6c0,0.5-0.4,0.8-1.2,0.9
			c-0.1,0-0.2,0-0.3,0H80.2c-0.5,0-0.9-0.2-1.1-0.5c0-0.1,0-0.1,0-0.2v-6.3c0-0.3,0.3-0.6,1-0.8C80.3,33,80.5,33,80.6,33z
			 M80.2,33.9v6.3c0,0,0,0.1,0.1,0.1h11.6c0.3,0,0.4-0.1,0.5-0.3v-6c0-0.2-0.2-0.3-0.5-0.3H80.6C80.3,33.7,80.2,33.8,80.2,33.9z"/>
		<path class="st1" d="M95.8,32.1h13.8c0.9,0,1.7,0.3,2.4,0.8c0.3,0.3,0.5,0.6,0.5,1v2.5c0,0.7-0.6,1.3-1.7,1.7
			c-0.5,0.1-0.9,0.2-1.4,0.2h-2.4l5.8,3.6v0h-1.5c-4.4-2.7-6.7-4.1-6.9-4.3v0h4.9c1,0,1.7-0.3,2-0.9c0-0.1,0-0.2,0-0.3v-2.5
			c0-0.5-0.4-0.8-1.2-1c-0.2-0.1-0.4-0.1-0.6-0.1H95.9l7.3,4.6v0h-7v4.5c0,0,0,0,0,0h-1c0,0,0,0,0,0v-5.1c0,0,0,0,0,0h5.6l-4.9-3
			L95.8,32.1C95.8,32.1,95.8,32.1,95.8,32.1z M96.7,37.6h7c3.8,2.4,6.1,3.8,6.9,4.3v0h-1.5l-5.9-3.6h-5.5v3.6c0,0,0,0,0,0h-1
			c0,0,0,0,0,0L96.7,37.6C96.7,37.6,96.7,37.6,96.7,37.6z M97,33h12.6c0.6,0,1,0.2,1.3,0.6c0,0.1,0.1,0.2,0.1,0.3v2.4
			c0,0.4-0.4,0.7-1.1,0.9c-0.2,0-0.3,0-0.5,0h-5.4C100.1,35,97.8,33.6,97,33L97,33z M99.5,33.7c0.5,0.3,2.1,1.3,4.9,3h5
			c0.3,0,0.4-0.1,0.5-0.3v-2.5c0-0.2-0.2-0.2-0.4-0.2H99.5z"/>
		<path class="st1" d="M113,32h16c0,0,0,0,0,0v0.6c0,0,0,0,0,0h-16c0,0,0,0,0,0L113,32C113,32.1,113,32,113,32z M113,33h16
			c0,0,0,0,0,0v0.6c0,0,0,0,0,0h-6.7v6.7h6.7c0,0,0,0,0,0v0.6c0,0,0,0,0,0h-16c0,0,0,0,0,0v-0.6c0,0,0,0,0,0h6.7v-6.7H113
			c0,0,0,0,0,0L113,33C113,33,113,33,113,33z M113,41.2h16c0,0,0,0,0,0v0.6c0,0,0,0,0,0h-16c0,0,0,0,0,0L113,41.2
			C113,41.2,113,41.2,113,41.2z M120.8,33.2v7.5h0.4v-7.5H120.8z"/>
		<path class="st1" d="M132.7,32.1h12.6c0,0,0,0,0,0v0.6c0,0,0,0,0,0h-12.7c-0.6,0-1.2,0.1-1.6,0.4c-0.5,0.3-0.7,0.6-0.7,0.9v7.2
			h14.9c0,0,0,0,0,0v0.6c0,0,0,0,0,0h-16c0,0,0,0,0,0V34c0-0.6,0.5-1.2,1.5-1.6C131.3,32.2,131.9,32.1,132.7,32.1z M132.6,33h12.7
			c0,0,0,0,0,0v0.6c0,0,0,0,0,0h-12.7c-0.3,0-0.6,0.1-0.7,0.3c0,0,0,0.1,0,0.1v6.2h13.4c0,0,0,0,0,0v0.6c0,0,0,0,0,0h-14.5
			c0,0,0,0,0,0V34c0-0.4,0.3-0.7,1-0.9C132.1,33,132.4,33,132.6,33z"/>
	</g>
</g>
</svg>
