<?xml version="1.0" encoding="utf-8"?>
<!-- Generator: Adobe Illustrator 23.0.2, SVG Export Plug-In . SVG Version: 6.00 Build 0)  -->
<svg version="1.1" id="Layer_1" xmlns="http://www.w3.org/2000/svg" xmlns:xlink="http://www.w3.org/1999/xlink" x="0px" y="0px"
	 viewBox="0 0 700 70" style="enable-background:new 0 0 700 70;" xml:space="preserve">
<style type="text/css">
	.st0{fill:none;}
	.st1{enable-background:new    ;}
	.st2{fill:#B24537;}
	.st3{fill:none;stroke:#66140E;stroke-width:3;stroke-miterlimit:10;}
	.st4{fill:none;stroke:#B24537;stroke-width:2;stroke-miterlimit:10;}
	.st5{fill:none;stroke:#B24537;stroke-width:3;stroke-miterlimit:10;}
</style>
<g>
	<rect x="77" y="2" class="st0" width="538" height="68"/>
	<g class="st1">
		<path class="st2" d="M84.6,2.1h27.9c3.3,0,5.7,1,7.3,2.9c0.4,0.6,0.5,1.2,0.5,1.7l-0.1,0h-2.5c-0.1,0-0.1-0.3-0.3-0.9
			c-1-1.5-2.6-2.2-4.9-2.2h-28c-2.1,0-3.6,0.6-4.6,1.9c-0.2,0.3-0.3,0.6-0.3,0.9v5.5c0,1.1,1,2,3,2.7c0.4,0.1,0.8,0.2,1.3,0.2
			c2.2,0,3.9,0,4.9,0h23.7c1.7,0,2.9,0.5,3.7,1.6c0.2,0.2,0.3,0.5,0.3,0.9V22c0,1.1-1,1.9-2.9,2.3c-0.3,0-0.5,0.1-0.7,0.1H83.7
			c-1.3,0-2.2-0.4-2.8-1.3c-0.1-0.2-0.1-0.3-0.1-0.4v0c0,0,0.1-0.1,0.1-0.1h2.5c0.2,0.1,0.3,0.2,0.3,0.2h29c0.7,0,1.1-0.3,1.2-0.8
			v-4.5c-0.1-0.5-0.5-0.8-1.2-0.8H89.1c-1.3,0-3,0-5.3,0c-1.4-0.1-2.8-0.4-4.1-1c-1.8-1-2.8-2.2-2.8-3.5V6.6c0-1.6,1.3-2.9,3.8-3.9
			C82,2.3,83.3,2.1,84.6,2.1z M84.6,4.4h27.9c1.9,0,3.2,0.6,3.9,1.8c0.1,0.2,0.1,0.4,0.1,0.5l-0.1,0h-2.5c0,0-0.1-0.1-0.3-0.4
			c-0.3-0.2-0.7-0.3-1.1-0.3H84.7c-0.8,0-1.2,0.2-1.2,0.6V12c0,0.3,0.3,0.5,0.9,0.7c1.7,0,3.1,0,4,0h24.3c2.9,0,5.2,0.9,6.9,2.6
			c0.5,0.7,0.8,1.4,0.8,2.1V22c0,1.5-1.1,2.8-3.2,3.7c-1.4,0.6-2.8,0.9-4.3,0.9H83.5c-2.1,0-3.9-0.6-5.4-1.9
			c-0.7-0.7-1.1-1.4-1.1-2.1v-0.1c0,0,0.1-0.1,0.1-0.1h2.5c0.1,0,0.1,0,0.1,0.1v0.1c0,0.8,0.8,1.5,2.3,2.1c0.6,0.1,1.1,0.2,1.5,0.2
			h29.3c1.8,0,3.3-0.6,4.4-1.8c0.2-0.5,0.4-0.9,0.4-1.2v-4.6c0-1.2-1-2.2-2.9-2.8c-0.6-0.2-1.3-0.3-2.1-0.3H88.8c-1.2,0-2.7,0-4.6,0
			c-1.2-0.2-2-0.4-2.4-0.8c-0.7-0.5-1-1-1-1.4V6.6c0-0.8,0.8-1.5,2.4-2C83.7,4.5,84.2,4.4,84.6,4.4z"/>
		<path class="st2" d="M121,2.2h40c0.1,0,0.1,0,0.1,0.1v1.5c0,0,0,0.1-0.1,0.1h-40c-0.1,0-0.1,0-0.1-0.1V2.3
			C121,2.2,121,2.2,121,2.2z M121,4.5h40c0.1,0,0.1,0,0.1,0.1v1.5c0,0,0,0.1-0.1,0.1h-16.7v20.5c0,0,0,0.1-0.1,0.1h-2.5
			c-0.1,0-0.1,0-0.1-0.1V5.1h-1.1v21.5c0,0,0,0.1-0.1,0.1h-2.5c-0.1,0-0.1,0-0.1-0.1V6.1H121c-0.1,0-0.1,0-0.1-0.1V4.6
			C121,4.5,121,4.5,121,4.5z"/>
		<path class="st2" d="M161.8,2.1h35.4c3.3,0,5.7,1,7.3,2.9c0.4,0.6,0.5,1.2,0.5,1.7l-0.1,0h-2.5c-0.1,0-0.1-0.3-0.3-0.9
			c-1-1.5-2.6-2.2-4.9-2.2h-32.9V25h33.2c1.8,0,3.3-0.6,4.4-1.8c0.2-0.3,0.3-0.7,0.4-1.2h2.5c0.1,0,0.1,0,0.1,0.1
			c0,1.5-1.1,2.8-3.2,3.7c-1.4,0.6-2.8,0.9-4.3,0.9h-35.8c-0.1,0-0.1,0-0.1-0.1V2.2C161.7,2.1,161.7,2.1,161.8,2.1z M165.6,4.4h31.7
			c1.9,0,3.2,0.6,3.9,1.8c0.1,0.2,0.1,0.4,0.1,0.5l-0.1,0h-2.5c0,0-0.1-0.1-0.3-0.4c-0.3-0.2-0.7-0.3-1.1-0.3h-29v6.7h29.1
			c0.1,0,0.1,0,0.1,0.1v1.5c0,0,0,0.1-0.1,0.1h-31.7c-0.1,0-0.1,0-0.1-0.1V4.5C165.5,4.4,165.5,4.4,165.6,4.4z M165.6,15h31.7
			c0.1,0,0.1,0,0.1,0.1v1.5c0,0,0,0.1-0.1,0.1h-29.1v6.1h29.2c0.6,0,1-0.3,1.2-0.8h2.5c0.1,0,0.1,0,0.1,0.1c0,0.9-0.8,1.6-2.4,2.1
			c-0.5,0.1-0.9,0.2-1.3,0.2h-32c-0.1,0-0.1,0-0.1-0.1v-9.2C165.5,15.1,165.5,15,165.6,15z"/>
		<path class="st2" d="M205.7,2.2h35.4c3.3,0,5.7,1,7.3,2.9c0.4,0.6,0.5,1.2,0.5,1.7l-0.1,0h-2.5c-0.1,0-0.1-0.3-0.3-0.9
			c-1-1.5-2.6-2.2-4.9-2.2h-32.9v22.8c0,0,0,0.1-0.1,0.1h-2.5c-0.1,0-0.1,0-0.1-0.1V2.3C205.6,2.2,205.7,2.2,205.7,2.2z M209.5,4.5
			h31.7c1.9,0,3.2,0.6,3.9,1.8c0.1,0.2,0.1,0.4,0.1,0.5l-0.1,0h-2.5c0,0-0.1-0.1-0.3-0.4c-0.3-0.2-0.7-0.3-1.1-0.3h-29v7.6h29.1
			c0.1,0,0.1,0,0.1,0.1v1.5c0,0,0,0.1-0.1,0.1h-31.7c-0.1,0-0.1,0-0.1-0.1V4.6C209.4,4.5,209.4,4.5,209.5,4.5z M209.5,16h31.7
			c0.1,0,0.1,0,0.1,0.1v1.5c0,0,0,0.1-0.1,0.1h-29.1v9c0,0,0,0.1-0.1,0.1h-2.5c-0.1,0-0.1,0-0.1-0.1V16C209.4,16,209.4,16,209.5,16z
			"/>
		<path class="st2" d="M249.6,2.3H285c3.6,0,6.1,1,7.5,3.1c0.2,0.5,0.4,1,0.4,1.4v19.8c0,0,0,0.1-0.1,0.1h-2.5c-0.1,0-0.1,0-0.1-0.1
			V6.9c0-1.3-1.1-2.2-3.3-2.8c-0.5-0.1-1.1-0.2-1.6-0.2h-33v22.7c0,0,0,0.1-0.1,0.1h-2.5c-0.1,0-0.1,0-0.1-0.1V2.3
			C249.6,2.3,249.6,2.3,249.6,2.3z M253.4,4.6h31.7c1.8,0,3,0.5,3.7,1.6c0.1,0.2,0.2,0.5,0.2,0.8v19.7c0,0,0,0.1-0.1,0.1h-2.5
			c-0.1,0-0.1,0-0.1-0.1V6.9c0-0.3-0.3-0.5-0.9-0.6H256v7.5h29.1c0.1,0,0.1,0,0.1,0.1v1.5c0,0,0,0.1-0.1,0.1h-31.7
			c-0.1,0-0.1,0-0.1-0.1V4.6C253.3,4.6,253.4,4.6,253.4,4.6z M253.4,16h31.7c0.1,0,0.1,0,0.1,0.1v1.5c0,0,0,0.1-0.1,0.1H256v9
			c0,0,0,0.1-0.1,0.1h-2.5c-0.1,0-0.1,0-0.1-0.1V16C253.3,16,253.4,16,253.4,16z"/>
		<path class="st2" d="M293.6,2h2.5c0.1,0,0.1,0,0.1,0.1c0,8.1,0.1,14.7,0.1,19.9c0,1.3,1.1,2.3,3.2,2.9c0.5,0.1,1,0.2,1.6,0.2h0.1
			c0.1,0,0.1,0,0.1,0.1v1.5c0,0,0,0.1-0.1,0.1h-0.3c-2.3,0-4.3-0.7-6.1-2.1c-0.8-0.8-1.2-1.7-1.2-2.7c0-5,0-11.6-0.1-19.9L293.6,2z
			 M297.2,2h3.6c19.7,12.5,29.5,18.8,29.6,18.8V2.2c0,0,0-0.1,0.1-0.1h2.5c0.1,0,0.1,0,0.1,0.1v22.6H333c-0.2-0.1-9.8-6.2-28.7-18.2
			C300.2,3.9,297.8,2.4,297.2,2L297.2,2z M297.3,3.1h0.1c0,0,0.7,0.5,2.1,1.4c21.8,13.9,33,21,33.6,21.4v0h-3.6
			c-0.8-0.5-9.8-6.2-27.2-17.3L300,7.2c0,3.5,0.1,6.1,0.1,7.8v7c0,0.3,0.3,0.6,1,0.7c0.2,0,0.3,0,0.3,0.1v1.5c0,0,0,0.1-0.1,0.1H301
			c-1.4,0-2.5-0.5-3.3-1.4c-0.2-0.3-0.4-0.7-0.4-1.1v-0.8C297.3,16.4,297.3,10.4,297.3,3.1z M334.3,2.2h2.5c0.1,0,0.1,0,0.1,0.1
			v23.7c0,0,0,0.1-0.1,0.1h-2.5c-0.1,0-0.1,0-0.1-0.1V2.2C334.2,2.2,334.2,2.2,334.3,2.2z"/>
	</g>
	<g class="st1">
		<path class="st2" d="M84.6,43.1h27.9c3.3,0,5.7,1,7.3,2.9c0.4,0.6,0.5,1.2,0.5,1.7l-0.1,0h-2.5c-0.1,0-0.1-0.3-0.3-0.9
			c-1-1.5-2.6-2.2-4.9-2.2h-28c-2.1,0-3.6,0.6-4.6,1.9c-0.2,0.3-0.3,0.6-0.3,0.9v5.5c0,1.1,1,2,3,2.7c0.4,0.1,0.8,0.2,1.3,0.2
			c2.2,0,3.9,0,4.9,0h23.7c1.7,0,2.9,0.5,3.7,1.6c0.2,0.2,0.3,0.5,0.3,0.9V63c0,1.1-1,1.9-2.9,2.3c-0.3,0-0.5,0.1-0.7,0.1H83.7
			c-1.3,0-2.2-0.4-2.8-1.3c-0.1-0.2-0.1-0.3-0.1-0.4v0c0,0,0.1-0.1,0.1-0.1h2.5c0.2,0.1,0.3,0.2,0.3,0.2h29c0.7,0,1.1-0.3,1.2-0.8
			v-4.5c-0.1-0.5-0.5-0.8-1.2-0.8H89.1c-1.3,0-3,0-5.3,0c-1.4-0.1-2.8-0.5-4.1-1c-1.8-1-2.8-2.2-2.8-3.5v-5.5c0-1.6,1.3-2.9,3.8-3.9
			C82,43.3,83.3,43.1,84.6,43.1z M84.6,45.4h27.9c1.9,0,3.2,0.6,3.9,1.8c0.1,0.2,0.1,0.4,0.1,0.5l-0.1,0h-2.5c0,0-0.1-0.1-0.3-0.4
			c-0.3-0.2-0.7-0.3-1.1-0.3H84.7c-0.8,0-1.2,0.2-1.2,0.6V53c0,0.3,0.3,0.5,0.9,0.7c1.7,0,3.1,0,4,0h24.3c2.9,0,5.2,0.9,6.9,2.6
			c0.5,0.7,0.8,1.4,0.8,2.1V63c0,1.5-1.1,2.8-3.2,3.7c-1.4,0.6-2.8,0.9-4.3,0.9H83.5c-2.1,0-3.9-0.6-5.4-1.9
			c-0.7-0.7-1.1-1.4-1.1-2.1v-0.1c0,0,0.1-0.1,0.1-0.1h2.5c0.1,0,0.1,0,0.1,0.1v0.1c0,0.8,0.8,1.5,2.3,2.1c0.6,0.1,1.1,0.2,1.5,0.2
			h29.3c1.8,0,3.3-0.6,4.4-1.8c0.2-0.5,0.4-0.9,0.4-1.2v-4.6c0-1.2-1-2.2-2.9-2.8c-0.6-0.2-1.3-0.3-2.1-0.3H88.8c-1.2,0-2.7,0-4.6,0
			c-1.2-0.2-2-0.4-2.4-0.8c-0.7-0.5-1-1-1-1.4v-5.5c0-0.8,0.8-1.5,2.4-2C83.7,45.5,84.2,45.4,84.6,45.4z"/>
		<path class="st2" d="M121,43.2h2.5c0.1,0,0.1,0,0.1,0.1v24.4c0,0,0,0.1-0.1,0.1H121c-0.1,0-0.1,0-0.1-0.1V43.2
			C121,43.2,121,43.2,121,43.2z M124.8,43.2h2.5c0.1,0,0.1,0,0.1,0.1v11.5h29.1c0.7,0,1.1-0.3,1.2-0.8V43.3c0,0,0-0.1,0.1-0.1h2.5
			c0.1,0,0.1,0,0.1,0.1v10.6c0,1.1-0.9,1.8-2.7,2.3c-0.4,0.1-0.8,0.1-1.4,0.1h-31.6c-0.1,0-0.1,0-0.1-0.1v-13
			C124.7,43.2,124.8,43.2,124.8,43.2z M124.8,57h17.3c1.6,1.2,6.3,4.7,14.1,10.6v0h-3.4l-12-9h-13.4v9c0,0,0,0.1-0.1,0.1h-2.5
			c-0.1,0-0.1,0-0.1-0.1V57C124.7,57,124.8,57,124.8,57z M161.7,43.2h2.5c0.1,0,0.1,0,0.1,0.1v10.6c0,1.8-1.4,3.2-4.1,4.2
			c-1.1,0.4-2.3,0.5-3.6,0.5h-7.2c0.1,0.1,4.1,3.1,11.9,9v0h-3.4c0,0-4.7-3.5-14.1-10.6l0.1,0h12.6c2.5,0,4.2-0.8,5-2.4
			c0.1-0.3,0.1-0.5,0.1-0.7V43.3C161.6,43.2,161.6,43.2,161.7,43.2z"/>
		<path class="st2" d="M172.3,43.3h28.2c2.9,0,5.2,0.8,6.8,2.5c0.6,0.7,0.9,1.4,0.9,2.2V63c0,1.5-1.1,2.8-3.2,3.7
			c-1.4,0.6-2.8,0.9-4.3,0.9h-29.4c-2.1,0-3.9-0.6-5.4-1.9c-0.7-0.7-1.1-1.4-1.1-2.1v-16c0-1.7,1.4-3,4.1-4
			C170.1,43.5,171.2,43.3,172.3,43.3z M167.6,47.8v16c0,0.8,0.8,1.5,2.3,2.1c0.6,0.1,1.1,0.2,1.5,0.2h29.3c1.8,0,3.3-0.6,4.4-1.8
			c0.2-0.5,0.4-0.9,0.4-1.2V47.9c0-1.3-1.1-2.3-3.3-2.9c-0.6-0.1-1.1-0.2-1.6-0.2h-28.3c-1.7,0-3.1,0.5-4.1,1.5
			C167.8,46.8,167.6,47.3,167.6,47.8z M172.5,45.6h28.1c1.6,0,2.8,0.5,3.6,1.6c0.1,0.3,0.2,0.5,0.2,0.8v15c0,1.1-1,1.9-2.9,2.3
			c-0.3,0-0.5,0.1-0.7,0.1h-29.2c-1.3,0-2.2-0.4-2.8-1.3c-0.1-0.2-0.1-0.3-0.1-0.4V47.8c0-0.9,0.8-1.5,2.5-2.1
			C171.7,45.6,172.1,45.6,172.5,45.6z M171.4,47.8v15.7c0,0.1,0.1,0.2,0.2,0.2h29c0.7,0,1.1-0.3,1.2-0.8v-15c0-0.4-0.4-0.7-1.3-0.7
			h-28C171.7,47.3,171.4,47.5,171.4,47.8z"/>
		<path class="st2" d="M210.6,43.3h34.5c2.3,0,4.3,0.7,5.9,2c0.8,0.8,1.2,1.6,1.2,2.5v6.2c0,1.8-1.4,3.2-4.1,4.2
			c-1.1,0.4-2.3,0.5-3.6,0.5h-6.1l14.6,9v0h-3.7c-11-6.7-16.7-10.3-17.2-10.6v0h12.3c2.5,0,4.2-0.8,5-2.4c0.1-0.3,0.1-0.5,0.1-0.7
			v-6.3c0-1.2-1-2-3-2.6c-0.5-0.1-1-0.2-1.4-0.2h-34.3l18.4,11.4v0h-17.6v11.3c0,0,0,0.1-0.1,0.1h-2.5c-0.1,0-0.1,0-0.1-0.1V54.7
			c0,0,0.1-0.1,0.1-0.1h13.9l-12.3-7.6v-3.7C210.5,43.3,210.5,43.3,210.6,43.3z M212.7,57h17.6c9.6,5.9,15.3,9.4,17.2,10.6v0h-3.7
			l-14.7-9h-13.8v9c0,0,0,0.1-0.1,0.1h-2.5c-0.1,0-0.1,0-0.1-0.1V57C212.6,57,212.6,57,212.7,57z M213.4,45.6h31.5
			c1.5,0,2.5,0.5,3.3,1.5c0.1,0.2,0.1,0.5,0.1,0.7v6.1c0,1.1-0.9,1.8-2.7,2.3c-0.4,0.1-0.8,0.1-1.4,0.1h-13.5
			C221.3,50.5,215.5,46.9,213.4,45.6L213.4,45.6z M219.8,47.2c1.1,0.7,5.2,3.2,12.1,7.5h12.5c0.7,0,1.1-0.3,1.2-0.8v-6.1
			c-0.1-0.4-0.4-0.6-0.9-0.6H219.8z"/>
		<path class="st2" d="M253.6,43.1h40c0.1,0,0.1,0,0.1,0.1v1.5c0,0,0,0.1-0.1,0.1h-40c-0.1,0-0.1,0-0.1-0.1v-1.5
			C253.5,43.1,253.5,43.1,253.6,43.1z M253.6,45.4h40c0.1,0,0.1,0,0.1,0.1V47c0,0,0,0.1-0.1,0.1h-16.7v16.7h16.7
			c0.1,0,0.1,0,0.1,0.1v1.5c0,0,0,0.1-0.1,0.1h-40c-0.1,0-0.1,0-0.1-0.1v-1.5c0,0,0.1-0.1,0.1-0.1h16.7V47.1h-16.7
			c-0.1,0-0.1,0-0.1-0.1v-1.5C253.5,45.4,253.5,45.4,253.6,45.4z M253.6,66h40c0.1,0,0.1,0,0.1,0.1v1.5c0,0,0,0.1-0.1,0.1h-40
			c-0.1,0-0.1,0-0.1-0.1v-1.5C253.5,66.1,253.5,66,253.6,66z M273,46v18.7h1.1V46H273z"/>
		<path class="st2" d="M302.6,43.2h31.6c0.1,0,0.1,0,0.1,0.1v1.5c0,0,0,0.1-0.1,0.1h-31.7c-1.6,0-2.9,0.3-4,0.9
			c-1.1,0.7-1.7,1.5-1.7,2.3v18h37.3c0.1,0,0.1,0,0.1,0.1v1.5c0,0,0,0.1-0.1,0.1h-39.9c-0.1,0-0.1,0-0.1-0.1V48c0-1.6,1.2-2.9,3.7-4
			C299.2,43.4,300.8,43.2,302.6,43.2z M302.5,45.5h31.7c0.1,0,0.1,0,0.1,0.1v1.5c0,0,0,0.1-0.1,0.1h-31.7c-0.8,0-1.4,0.2-1.8,0.7
			c-0.1,0.1-0.1,0.2-0.1,0.3v15.6h33.5c0.1,0,0.1,0,0.1,0.1v1.5c0,0,0,0.1-0.1,0.1h-36.1c-0.1,0-0.1,0-0.1-0.1V48
			c0-0.9,0.8-1.7,2.5-2.3C301.2,45.6,301.9,45.5,302.5,45.5z"/>
	</g>
</g>
<g>
	<polyline class="st3" points="66,18.4 35.1,2 4,18.4 66,51.4 35.1,68 4,51.4 	"/>
	<g>
		<polygon class="st2" points="46.5,51.4 25.2,39.5 31.7,40 53.1,51.7 		"/>
		<polygon class="st4" points="46.5,51.4 25.2,39.5 31.7,40 53.1,51.7 		"/>
	</g>
	<g>
		<polygon class="st2" points="34.5,53.8 12.7,41.8 18.5,42.1 40.3,54 		"/>
		<polygon class="st5" points="34.5,53.8 12.7,41.8 18.5,42.1 40.3,54 		"/>
	</g>
	<g>
		<polygon class="st2" points="29.5,60.2 7.7,48.3 13.6,48.6 35.3,60.5 		"/>
		<polygon class="st4" points="29.5,60.2 7.7,48.3 13.6,48.6 35.3,60.5 		"/>
	</g>
	<g>
		<polygon class="st2" points="54.9,22.1 33.6,10.2 40.2,10.7 61.5,22.4 		"/>
		<polygon class="st4" points="54.9,22.1 33.6,10.2 40.2,10.7 61.5,22.4 		"/>
	</g>
	<g>
		<polygon class="st2" points="49.9,28.5 28,16.5 34,16.8 55.7,28.6 		"/>
		<polygon class="st5" points="49.9,28.5 28,16.5 34,16.8 55.7,28.6 		"/>
	</g>
	<g>
		<polygon class="st2" points="37.9,30.9 16.2,19 22,19.3 43.7,31.2 		"/>
		<polygon class="st4" points="37.9,30.9 16.2,19 22,19.3 43.7,31.2 		"/>
	</g>
</g>
</svg>
