<?xml version="1.0" encoding="utf-8"?>
<!-- Generator: Adobe Illustrator 23.0.2, SVG Export Plug-In . SVG Version: 6.00 Build 0)  -->
<svg version="1.1" xmlns="http://www.w3.org/2000/svg" xmlns:xlink="http://www.w3.org/1999/xlink" x="0px" y="0px"
	 viewBox="0 0 700 70" style="enable-background:new 0 0 700 70;" xml:space="preserve">
<style type="text/css">
	.st0{fill:none;}
	.st1{fill:#B24537;}
	.st2{font-family:'ModernismStroke';}
	.st3{font-size:35px;}
	.st4{fill:none;stroke:#66140E;stroke-width:3;stroke-miterlimit:10;}
	.st5{fill:none;stroke:#B24537;stroke-width:2;stroke-miterlimit:10;}
	.st6{fill:none;stroke:#B24537;stroke-width:3;stroke-miterlimit:10;}
</style>
<g id="Layer_1">
	<rect x="77" y="2" class="st0" width="538" height="68"/>
	<text transform="matrix(1.6553 0 0 1 77 26.5068)"><tspan x="0" y="0" class="st1 st2 st3">STEFAN   </tspan><tspan x="0" y="41" class="st1 st2 st3">SKORIC</tspan></text>
</g>
<g id="Layer_2">
	<polyline class="st4" points="66,18.4 35.1,2 4,18.4 66,51.4 35.1,68 4,51.4 	"/>
	<g>
		<polygon class="st1" points="46.5,51.4 25.2,39.5 31.7,40 53.1,51.7 		"/>
		<polygon class="st5" points="46.5,51.4 25.2,39.5 31.7,40 53.1,51.7 		"/>
	</g>
	<g>
		<polygon class="st1" points="34.5,53.8 12.7,41.8 18.5,42.1 40.3,54 		"/>
		<polygon class="st6" points="34.5,53.8 12.7,41.8 18.5,42.1 40.3,54 		"/>
	</g>
	<g>
		<polygon class="st1" points="29.5,60.2 7.7,48.3 13.6,48.6 35.3,60.5 		"/>
		<polygon class="st5" points="29.5,60.2 7.7,48.3 13.6,48.6 35.3,60.5 		"/>
	</g>
	<g>
		<polygon class="st1" points="54.9,22.1 33.6,10.2 40.2,10.7 61.5,22.4 		"/>
		<polygon class="st5" points="54.9,22.1 33.6,10.2 40.2,10.7 61.5,22.4 		"/>
	</g>
	<g>
		<polygon class="st1" points="49.9,28.5 28,16.5 34,16.8 55.7,28.6 		"/>
		<polygon class="st6" points="49.9,28.5 28,16.5 34,16.8 55.7,28.6 		"/>
	</g>
	<g>
		<polygon class="st1" points="37.9,30.9 16.2,19 22,19.3 43.7,31.2 		"/>
		<polygon class="st5" points="37.9,30.9 16.2,19 22,19.3 43.7,31.2 		"/>
	</g>
</g>
</svg>
