<?xml version="1.0" encoding="utf-8"?>
<!-- Generator: Adobe Illustrator 23.0.2, SVG Export Plug-In . SVG Version: 6.00 Build 0)  -->
<svg version="1.1" id="Layer_1" xmlns="http://www.w3.org/2000/svg" xmlns:xlink="http://www.w3.org/1999/xlink" x="0px" y="0px"
	 viewBox="0 0 990 773" style="enable-background:new 0 0 990 773;" xml:space="preserve">
<style type="text/css">
	.st0{fill:#B34437;}
	.st1{fill:#F7F7F7;}
	.st2{fill:#D3D3D3;}
	.st3{fill:#0E538C;}
	.st4{fill:#2A94F4;}
	.st5{fill:#0B4870;}
	.st6{fill:#CCE9FF;}
	.st7{fill:#F2F2F2;}
	.st8{fill:#FFE3CA;}
	.st9{fill:#7F7F7F;}
	.st10{fill:#04293A;}
	.st11{fill:#562402;}
	.st12{fill:#FCD2B1;}
	.st13{fill:#FFFF00;}
	.st14{opacity:0.7;fill:#A01207;}
</style>
<path class="st0" d="M941.7,524.2C1142.6,27.4,678.1-100.5,259.6,76.7c-102,43.2-222.6,68-251.7,174.4
	c-23.7,87.4,6.8,189.5,81,257.7c69.7,64,168.1,88.5,256.4,119.3c78.6,27.4,138.6,87.8,216,116.9c141.5,53.4,287.3,5.1,349.5-99.7
	C931.3,610.6,924.9,565.8,941.7,524.2z"/>
<g>
	<polygon class="st1" points="782.5,260.8 739.3,267.5 727,307.9 739.3,321.3 776.4,307.9 	"/>
	<path class="st2" d="M730,318c-1.7-1.8-1.7-4.8,0-6.7l18.5-20.1c1.7-1.8,4.4-1.8,6.1,0c1.7,1.8,1.7,4.8,0,6.7L736.1,318
		C734.5,319.8,731.7,319.8,730,318z"/>
	<path class="st2" d="M760.9,297.9c-3.4,3.7-9,3.7-12.4,0c-3.4-3.7-3.4-9.8,0-13.5c3.4-3.7,9-3.7,12.4,0
		C764.3,288.1,764.3,294.1,760.9,297.9z"/>
	<polygon points="702.2,321.3 702.2,328 720.7,348.2 726.9,348.2 739.2,321.2 726.9,307.8 	"/>
	<polygon class="st3" points="658.3,270 662.1,277.6 686.8,284.3 692.5,277.6 687.4,257 690.1,243.1 673,239.3 670.3,253.2 	"/>
	<polygon class="st4" points="673,239.3 690.1,243.1 693.6,224.4 677.3,215.9 	"/>
	<path class="st5" d="M647.2,423c-9.4-2.1-15.5-12.2-13.6-22.4L658.3,270l34.2,7.7l-24.6,130.4C665.9,418.5,656.7,425,647.2,423z"/>
	<path d="M702.2,321.3l24.7,26.9l-61.7,67.2c-6.9,7.5-17.9,7.5-24.7,0c-6.9-7.5-6.9-19.4,0-26.9L702.2,321.3z"/>
	<polygon class="st3" points="732.7,363 756.3,356.7 764.8,393.6 741.1,399.9 	"/>
	<path class="st1" d="M832.5,355.6l-35.2-13.8c-6-2.3-12.6-2.8-18.7-1c-4.9,1.3-9.4,3.8-13.2,7.4l-9.1,8.4l8.3,36.9l11.6,2.9
		c4.9,1.2,10,1.2,14.9-0.2c6.2-1.7,11.8-5.3,16.2-10.5L832.5,355.6z"/>
	<path class="st2" d="M820.3,370.1l-14.1-9.7c-8.7-5.8-19.5-5.6-28.1,0.3c-2,1.4-2.6,4.4-1.4,6.6c0.2,0.3,0.4,0.6,0.6,0.8
		c1.5,1.6,3.7,1.8,5.4,0.7c5.7-4,13-4.1,18.8-0.2l12.7,8.7L820.3,370.1z"/>
	<path class="st4" d="M735.1,362.3l8.5,36.9l-89.1,24.1c-9.4,2.5-18.8-3.7-21.1-13.9s3.4-20.5,12.8-23L735.1,362.3z"/>
	<polygon class="st6" points="474,306 427,335.3 380,306 427,276.9 	"/>
	<polygon class="st4" points="427,335.3 397.9,317.1 380,328.1 427,357.4 474,328.1 456.2,317.1 	"/>
	<polygon class="st3" points="427,357.4 397.9,339.2 380,350.2 427,379.5 474,350.2 456.2,339.2 	"/>
	<path class="st2" d="M602.9,577.5H488.4c-5.4,0-9.7-4.8-9.7-10.7c0-5.9,4.3-10.7,9.7-10.7h114.5c5.4,0,9.7,4.8,9.7,10.7
		C612.6,572.9,608.3,577.5,602.9,577.5z"/>
	<rect x="520.9" y="703" class="st3" width="98.6" height="10.7"/>
	<path class="st3" d="M530.1,711.5c0.8,5.6-2.5,10.8-7.6,11.7c-5.1,0.9-9.8-2.8-10.7-8.4s2.5-10.8,7.6-11.7
		C524.5,702.2,529.2,705.9,530.1,711.5z"/>
	<rect x="564.8" y="572.6" class="st3" width="9.7" height="134.7"/>
	<path class="st3" d="M628.7,711.5c0.8,5.6-2.5,10.8-7.6,11.7c-5.1,0.9-9.8-2.8-10.7-8.4c-0.8-5.6,2.5-10.8,7.6-11.7
		C623.1,702.2,627.8,705.9,628.7,711.5z"/>
	<path class="st2" d="M633,577.5H524.7c-7.4,0-12.7-7.9-10.6-15.9L565.8,366c1.4-5.2,5.7-8.8,10.6-8.8h108.2
		c7.4,0,12.7,7.9,10.6,15.9l-51.6,195.7C642.2,573.9,637.9,577.5,633,577.5z"/>
	<path class="st7" d="M618.1,577.5h-94.2c-7.4,0-12.7-7.9-10.6-15.9L565,366c1.4-5.2,5.7-8.8,10.6-8.8h94.2
		c7.4,0,12.7,7.9,10.6,15.9l-51.7,195.7C627.3,573.9,623,577.5,618.1,577.5z"/>
	<path class="st2" d="M632.9,577.5H518.4c-5.4,0-9.7-4.8-9.7-10.7c0-5.9,4.3-10.7,9.7-10.7h114.5c5.4,0,9.7,4.8,9.7,10.7
		C642.6,572.9,638.3,577.5,632.9,577.5z"/>
	<polygon class="st8" points="540.3,411 516.8,484.5 522.3,499 553.9,492.5 562.9,413.8 	"/>
	<path class="st4" d="M554.4,375.2c0,0-18.5,11.4-22.6,49.1l24.5,15.9L554.4,375.2z"/>
	<path class="st4" d="M586.1,360.7l-31.7,14.5l-24.9,121.1l83.6,35.9l44.5-138.1c0,0-7.3-28.9-49-36.1L586.1,360.7z"/>
	<path class="st8" d="M670.5,502.9c-0.1-1.6-1-11.2-1.3-12.7l-13.7-96c-2.6-13.1-16.3-19.8-27-13.2c-7.9,4.8-11.5,15.2-8.5,24.4
		l16.4,82.4L670.5,502.9z"/>
	<path class="st8" d="M651.8,482.3l-93.2-7.9l-4.6,18.1l89.7,33c13.8,5.1,27.9-6.8,26.8-22.6C669.8,492,661.9,483.3,651.8,482.3z"/>
	<path class="st4" d="M646.1,378.1c0,0,11.9,5.6,17,39.1l-41.9,14c0,0-27.5-33.5,1.9-55.8L646.1,378.1z"/>
	<path class="st8" d="M529.4,493.5c3.4,10,20.7,10.4,29.8,6.7c9.2-3.7,18.6-9.4,15.1-19.4c-3.4-10-18.7-15.9-28.6-13.5
		C533.5,470.4,525.9,483.6,529.4,493.5z"/>
	<path class="st9" d="M580.1,507.1l-66.6-9.3l1-8.2l66.6,9.3c2.1,0.3,3.5,2.3,3.3,4.6C584,505.8,582.1,507.4,580.1,507.1z"/>
	<path class="st9" d="M522.3,499l-88.1-12.3c-5.1-0.7-9.1-5.1-9.8-10.6l-9.3-69.6c-0.8-6.2,4-11.5,9.6-10.7l80.9,11.3
		c3.4,0.5,6,3.3,6.4,7L522.3,499z"/>
	<path class="st0" d="M473.4,451.2c-0.6,5.1-4.8,8.5-9.4,7.9c-4.6-0.7-7.8-5.2-7.3-10.2c0.6-5.1,4.8-8.5,9.4-7.9
		C470.8,441.6,474,446.2,473.4,451.2z"/>
	<path class="st10" d="M419,684.9l-22.9,10.4l-14.5,1.2c-6.7,0.6-12.1,5.8-13.6,12.9l-0.6,3.3l78.4,10.7l1.6-34.4L419,684.9z"/>
	<polygon class="st8" points="445.4,687 453.1,649.4 424.7,645.3 417,682.9 	"/>
	<path class="st5" d="M613,532.2c0,0-2.2,20.7-36.3,23.5h-82L456,673.1l-40.7-7.1L456,493.5l93.2,11.3L613,532.2z"/>
	<path class="st10" d="M351.3,615.5l-24.5-3.9l-13-7.1c-5.9-3.2-13.2-1.8-17.7,3.5l-2.1,2.5l62.2,53.1l17.5-28.7L351.3,615.5z"/>
	<polygon class="st8" points="373.9,634.8 395.2,605.2 372.8,585.7 351.3,615.5 	"/>
	<path class="st5" d="M529.5,496.3l-63.2-20.6c-2.6-0.9-5.3-1.8-7.8-3c-5.5-2.3-19.2-5.4-29.9,12.3
		c-13.7,22.8-68.5,108.9-68.5,108.9l33.4,26.8l72.9-101.3c6.1-9.2,16-14.6,26.3-14.6l56.4-0.1L529.5,496.3z"/>
	<path class="st11" d="M610.7,323c1.2-2.3,20.7-40.3,2.7-49.8c0,0-2.3-20-22.9-17.8c-20.6,2.2-15,8.7-28.1,5.5
		c-13.1-3.2-25.5,4.1-24.5,16c1,12,9.4,17,24.5,14.2c15.1-2.9,27-0.7,27-0.7l12.6,4L610.7,323z"/>
	<path class="st8" d="M613.3,364l-1.6-48.2L581,327.7l2.4,38.7c0.5,9,5.2,16,13.4,15.3l2.5-0.2C607.6,380.8,613.8,373.1,613.3,364z"
		/>
	<path class="st12" d="M609.1,322.5c0,0,5.8,40.3-25.8,42.6l-1.4-19.1L609.1,322.5z"/>
	<path class="st8" d="M583,356.1h1.1c15.7-0.8,27.9-15.3,27.2-32.5l-1.5-35c-0.2-4.5-3.7-7.8-7.7-7.7l-37.5,2
		c-7.3,0.3-12.9,7.1-12.6,15.1l1.3,28.8C553.9,343.7,567.2,356.9,583,356.1z"/>
	<path class="st8" d="M604.1,313.1c0.2,5.8,4.8,10.2,10,10c5.3-0.2,9.4-5.2,9.2-10.9c-0.2-5.8-4.8-10.2-10-10
		C607.9,302.4,603.8,307.2,604.1,313.1z"/>
	<path class="st11" d="M599.4,285l1.9,39.1c0.2,3.6-1.2,7.1-3.8,9.1c-1.7,1.3-3.1,3-6,2.5c-8.6-1.4-4.6-8.3-22-7.3
		c-15.8,0.9-14.7,10.6-14.7,10.6s3.1,18.3,24.8,19.1c21.8,0.9,32.6-14.2,30.1-34.1l-2.1-41.3L599.4,285z"/>
	<path class="st11" d="M553,291.5c0,0,10.1,1.7,24.8-2.2c14.7-3.9,26.3,9,26.3,9s3.2,6,3.9,5.8c0.7-0.1,5.3-2.1,5.3-2.1l-0.2-18.1
		l-10.8-9.1l-29.8-1.4l-17.6,4.3L553,291.5z"/>
	<path class="st13" d="M560.7,206.1l0.7,1.7l-15.7,7.8l-0.7-1.8c-3.1-7.3-8.9-13.2-15.8-16.5c-6-2.8-10.2-8.1-12.1-14.7
		c-2.6-10.1,1.7-23,12.5-28.4c11.3-5.6,24.4-0.5,29.4,11.2c2.2,5.3,2.5,11.4,0.6,17C556.9,190.1,557.4,198.4,560.7,206.1z"/>
	<path class="st13" d="M565.1,216.4c0.8,2,0,4.3-1.9,5.2l-9.1,4.5c-1.9,0.9-4,0.1-4.9-2l-1.9-4.5l15.7-7.8L565.1,216.4z"/>
	<polygon class="st13" points="519.4,136.1 523.1,134.2 527.1,143.6 523.3,145.5 	"/>
	<polygon class="st13" points="551.4,142.2 555.2,143.7 558.8,133.9 555,132.4 	"/>
	<polygon class="st13" points="572.6,161.1 581.7,156.6 583.3,160.6 574.3,165.1 	"/>
	<polygon class="st13" points="496.5,198.9 505.5,194.5 507.2,198.4 498.1,202.9 	"/>
	<polygon class="st13" points="497.3,161 495.8,165.2 504.9,168.6 506.3,164.5 	"/>
	<path class="st3" d="M383.7,237.5l-4-4.7c-0.7-0.8-1.6-1.3-2.5-1.3s-1.8,0.5-2.5,1.3l-0.6,0.7c-5.3-4.1-11.5-6.3-17.9-6.4h-0.1
		c-4,0-7.9,0.8-11.5,2.5l7-8.2c0.9,0.5,1.8,0.8,2.8,0.8c1.8,0,3.5-0.8,4.7-2.3c1.3-1.5,1.9-3.4,1.9-5.5c0-2.1-0.7-4.1-1.9-5.5
		c-1.3-1.5-2.9-2.3-4.7-2.3s-3.5,0.8-4.7,2.3c-1.3,1.5-1.9,3.4-1.9,5.5c0,1.1,0.2,2.3,0.7,3.3l-12.7,14.8l-0.4-0.5
		c-0.7-0.8-1.6-1.3-2.5-1.3s-1.8,0.5-2.5,1.3l-4.1,4.7c-0.7,0.8-1.1,1.8-1.1,3c0,1.1,0.4,2.2,1.1,3l0.4,0.5L314,258
		c-0.9-0.5-1.8-0.8-2.8-0.8c-1.8,0-3.5,0.8-4.7,2.3c-2.6,3.1-2.6,8,0,11c1.3,1.5,2.9,2.3,4.7,2.3c1.8,0,3.5-0.8,4.7-2.3
		c2-2.4,2.5-6,1.3-8.9l7-8.2c-1.4,4.3-2.1,8.9-2.1,13.6c0,7.5,1.8,14.7,5.4,21l-0.7,0.8c-1.4,1.6-1.4,4.3,0,5.9l4,4.7
		c0.7,0.8,1.6,1.3,2.5,1.3s1.8-0.5,2.5-1.3l4-4.7c1.4-1.6,1.4-4.3,0-5.9l-4-4.7c-0.7-0.8-1.6-1.3-2.5-1.3s-1.8,0.5-2.5,1.3l-0.1,0.1
		c-5.7-10.9-5.5-25.2,0.8-35.9c0.4,0.2,0.9,0.3,1.3,0.3c1,0,1.8-0.5,2.5-1.3l4-4.7c1.1-1.3,1.3-3,0.8-4.4c9.1-7.4,21.3-7.7,30.7-0.9
		l-0.3,0.3c-1.4,1.6-1.4,4.3,0,5.9l4,4.7c0.7,0.8,1.6,1.3,2.5,1.3s1.8-0.5,2.5-1.3l4-4.7C385.1,241.8,385.1,239.2,383.7,237.5z
		 M336.2,291.7l-2.8,3.3l-2.8-3.3l2.8-3.3L336.2,291.7z M352.8,212.5c0.4-0.5,1-0.8,1.6-0.8s1.2,0.2,1.6,0.8
		c0.4,0.5,0.7,1.1,0.7,1.8s-0.2,1.4-0.7,1.8c-0.4,0.5-1,0.8-1.6,0.8s-1.2-0.2-1.6-0.8c-0.4-0.5-0.7-1.1-0.7-1.8
		C352.3,213.6,352.5,213,352.8,212.5z M312.8,266.8c-0.4,0.5-1,0.8-1.6,0.8c-0.6,0-1.2-0.2-1.6-0.8c-0.9-1-0.9-2.6,0-3.6
		c0.4-0.5,1-0.8,1.6-0.8c0.6,0,1.2,0.2,1.6,0.8C313.6,264.2,313.6,265.9,312.8,266.8z M332.8,243l-2.8-3.3l2.8-3.3l2.8,3.3
		L332.8,243z M377.1,243.8l-2.8-3.3l2.8-3.3l2.8,3.3L377.1,243.8z"/>
	<path class="st0" d="M990,747.4c0,14.1-221.6,25.6-495,25.6C221.6,773,0,761.5,0,747.4c0-14.1,221.6-25.6,495-25.6
		C768.4,721.8,990,733.3,990,747.4z"/>
	<ellipse class="st14" cx="427.5" cy="728.5" rx="43.5" ry="5.5"/>
	<ellipse class="st14" cx="584" cy="731.5" rx="113" ry="8.5"/>
</g>
</svg>
